<?xml version="1.0" standalone="no"?>
<!DOCTYPE svg PUBLIC "-//W3C//DTD SVG 20010904//EN"
 "http://www.w3.org/TR/2001/REC-SVG-20010904/DTD/svg10.dtd">
<svg version="1.0" xmlns="http://www.w3.org/2000/svg"
 width="757.000000pt" height="757.000000pt" viewBox="0 0 757.000000 757.000000"
 preserveAspectRatio="xMidYMid meet">
<metadata>
Created by potrace 1.11, written by Peter Selinger 2001-2013
</metadata>
<g transform="translate(0.000000,757.000000) scale(0.100000,-0.100000)"
fill="#000000" stroke="none">
<path d="M124 6034 c-63 -22 -106 -86 -101 -149 2 -16 16 -80 31 -142 22 -86
34 -114 50 -122 13 -7 14 -10 3 -7 -13 4 -16 1 -13 -17 4 -21 21 -93 31 -129
6 -21 13 -51 19 -75 31 -131 52 -203 68 -225 68 -98 146 -298 173 -441 23
-129 24 -133 26 -212 3 -110 -7 -101 -15 12 -11 163 -47 299 -118 456 -36 79
-64 92 -35 17 6 -17 45 -173 52 -208 2 -12 6 -26 9 -30 3 -5 7 -19 10 -33 2
-13 19 -80 36 -149 18 -69 34 -134 35 -145 1 -12 8 -19 17 -17 12 2 14 -6 11
-37 -2 -22 4 -68 13 -103 9 -35 18 -70 19 -78 2 -8 4 -16 5 -17 3 -4 4 -6 19
-75 7 -32 12 -61 13 -65 0 -5 4 -14 10 -20 6 -7 8 -13 4 -13 -3 0 -1 -11 4
-26 6 -14 12 -37 15 -52 4 -22 27 -116 50 -204 3 -10 8 -28 11 -40 3 -13 8
-34 11 -48 2 -14 7 -32 10 -40 3 -8 8 -26 10 -40 2 -14 10 -41 18 -61 8 -20
12 -39 9 -42 -3 -3 -1 -14 4 -24 6 -10 12 -31 15 -48 3 -16 10 -42 16 -57 6
-16 9 -28 7 -28 -2 0 2 -20 9 -44 8 -24 12 -47 9 -50 -2 -3 0 -3 5 1 5 5 11
24 14 43 2 19 3 0 1 -44 -2 -43 1 -85 6 -95 7 -13 32 -109 45 -171 2 -8 8 -35
15 -60 7 -25 13 -49 14 -55 1 -5 5 -19 9 -30 3 -11 8 -31 11 -45 3 -14 9 -38
14 -55 5 -16 8 -38 6 -48 -1 -9 1 -15 6 -12 4 3 10 -10 13 -28 3 -17 8 -43 12
-57 3 -14 7 -34 8 -45 1 -11 6 -23 10 -26 4 -3 9 -22 10 -42 1 -21 5 -37 8
-37 4 0 10 -17 14 -37 14 -75 200 -280 337 -371 62 -41 89 -65 38 -34 -82 49
-161 113 -254 204 -55 53 -103 95 -105 92 -3 -3 0 -8 6 -12 6 -4 13 -20 16
-37 3 -16 8 -37 11 -45 3 -8 8 -26 10 -40 20 -105 38 -154 65 -178 23 -22 24
-23 3 -12 -21 10 -22 9 -17 -17 3 -15 7 -32 9 -38 1 -5 8 -30 15 -54 7 -25 14
-54 15 -65 7 -62 67 -123 131 -133 50 -8 115 19 142 59 17 27 96 313 108 393
2 11 4 20 5 20 1 0 3 7 5 15 2 8 18 69 35 134 16 66 32 131 35 145 10 55 15
76 29 125 8 28 17 62 19 76 3 14 13 54 22 90 10 36 18 72 19 80 2 8 5 22 8 30
5 13 29 105 46 180 3 14 6 35 6 47 1 11 5 19 10 15 5 -3 7 2 3 10 -3 9 0 21 6
27 6 6 8 11 5 11 -3 0 2 27 12 60 l18 60 -21 0 c-12 0 -51 9 -87 20 -72 22
-210 38 -211 24 -1 -16 -7 -41 -13 -62 -5 -14 -1 -24 11 -32 16 -10 16 -10 -2
-5 -17 4 -21 0 -23 -27 -2 -18 -6 -35 -10 -38 -4 -3 -7 -12 -7 -20 1 -8 -4
-30 -11 -48 -7 -18 -13 -36 -13 -40 1 -26 -26 -132 -33 -132 -5 0 -7 -4 -4 -8
5 -8 -9 -79 -21 -112 -3 -8 -8 -24 -10 -35 -2 -11 -11 -48 -19 -83 -9 -35 -17
-71 -19 -80 -2 -9 -4 -17 -5 -17 -2 0 -11 -38 -12 -52 -3 -29 -17 -10 -27 34
-25 108 -28 120 -41 168 -6 22 -12 45 -13 50 -1 6 -6 16 -10 23 -5 7 -3 12 5
12 9 0 9 3 2 8 -9 6 -18 36 -50 162 -7 29 -36 145 -38 155 -2 6 -6 24 -10 40
-14 57 -16 59 -28 47 -7 -7 -16 -12 -22 -12 -5 0 1 8 12 19 12 10 20 20 18 22
-2 2 -6 18 -9 34 -3 17 -18 75 -32 130 -15 55 -28 107 -30 115 -2 8 -10 42
-18 75 -9 33 -18 71 -21 85 -3 14 -19 79 -37 145 -17 66 -32 127 -34 135 -2 8
-11 43 -20 77 -24 92 -27 106 -28 126 -1 9 -5 17 -10 17 -4 0 -7 6 -6 13 1 6
-1 20 -6 30 -4 10 -5 20 -2 24 4 3 0 18 -8 34 -9 16 -14 32 -13 36 1 4 -1 19
-5 33 -8 26 -19 67 -38 143 -6 23 -14 56 -19 72 -5 17 -12 44 -15 60 -8 39
-13 60 -15 60 -1 0 -3 9 -5 20 -2 11 -8 35 -14 54 -6 19 -9 37 -6 39 3 3 1 10
-4 16 -5 6 -12 25 -15 41 -3 17 -15 66 -26 110 -12 44 -23 89 -25 99 -3 10 -9
33 -14 50 -6 17 -12 42 -14 56 -2 14 -7 32 -10 40 -3 8 -24 92 -46 185 -23 94
-46 178 -52 189 -8 14 -8 16 3 10 10 -6 10 -4 -1 9 -7 9 -11 17 -7 17 3 0 1
12 -5 28 -13 32 -20 60 -22 87 -1 11 -5 22 -9 25 -4 4 -9 23 -10 43 -2 20 -6
37 -10 37 -4 0 -7 8 -7 18 0 28 -6 57 -13 62 -3 3 -8 19 -11 36 -17 110 -107
171 -203 138z m603 -2726 c-3 -8 -6 -5 -6 6 -1 11 2 17 5 13 3 -3 4 -12 1 -19z
m728 -186 c-3 -3 -11 0 -18 7 -9 10 -8 11 6 5 10 -3 15 -9 12 -12z m162 -82
c24 -14 43 -29 43 -33 0 -4 -21 6 -47 24 -75 50 -73 54 4 9z m-513 -1135 c11
-8 16 -15 10 -15 -5 0 -18 7 -28 15 -11 8 -16 15 -10 15 5 0 18 -7 28 -15z
m51 -33 c-3 -3 -11 0 -18 7 -9 10 -8 11 6 5 10 -3 15 -9 12 -12z m110 -37 c44
-16 72 -31 63 -33 -9 -2 -49 13 -90 32 -85 42 -81 42 27 1z"/>
<path d="M1935 5006 c-71 -26 -117 -83 -129 -161 -2 -16 -5 -30 -6 -30 -1 0
-3 -7 -5 -15 -7 -31 -23 -95 -26 -106 -2 -7 36 -33 85 -59 164 -86 253 -158
399 -324 49 -57 57 -60 32 -11 -9 17 -13 30 -10 30 3 0 1 8 -4 18 -9 17 -21
69 -24 107 -1 11 -5 22 -9 25 -3 3 -8 19 -11 35 -3 17 -10 45 -16 63 -5 18
-10 34 -11 37 0 3 -2 10 -4 17 -3 7 -7 25 -10 40 -5 20 -19 32 -60 51 -58 27
-147 89 -183 128 -48 51 -83 94 -83 102 0 4 15 -9 33 -30 56 -66 74 -82 157
-138 88 -60 127 -71 116 -32 -4 12 -9 33 -12 47 -22 97 -35 130 -68 163 -46
48 -99 63 -151 43z"/>
<path d="M1754 4628 c-4 -18 -8 -35 -9 -38 -20 -95 -41 -170 -48 -170 -4 0 -5
-4 -2 -10 3 -5 0 -29 -7 -52 -7 -24 -13 -47 -14 -53 -1 -5 -3 -12 -4 -15 -2
-5 -6 -24 -13 -55 -3 -11 -10 -38 -16 -60 -6 -22 -12 -49 -14 -60 -6 -31 -18
-78 -24 -95 -4 -8 -6 -18 -5 -22 1 -4 -3 -19 -8 -33 -12 -32 -3 -32 91 0 90
30 79 17 -16 -19 -38 -14 -75 -30 -80 -34 -6 -4 -21 -52 -35 -107 -13 -55 -25
-104 -26 -110 -44 -174 -53 -210 -60 -244 -3 -14 -7 -28 -9 -31 -2 -4 -7 -22
-10 -41 -4 -19 -8 -38 -9 -44 -1 -5 -4 -14 -7 -20 -14 -26 -2 -40 41 -48 25
-5 86 -20 136 -33 115 -30 128 -30 121 -3 -3 12 0 22 8 25 7 3 12 14 10 25 -2
10 0 21 5 24 4 3 7 20 6 39 -1 19 2 32 6 30 7 -5 9 1 12 39 1 6 6 15 11 19 6
5 4 8 -5 8 -11 0 -12 2 -2 8 7 5 14 18 17 30 2 12 7 27 10 32 3 6 0 10 -7 10
-9 0 -9 3 -2 8 6 4 14 21 18 37 9 40 14 60 16 60 1 0 4 11 5 25 2 14 8 41 14
60 26 94 41 165 36 177 -2 8 -1 12 4 9 5 -3 12 1 15 10 4 10 2 13 -7 8 -9 -6
-9 -4 -1 7 9 11 21 48 25 74 0 2 7 28 14 56 8 29 12 56 9 61 -3 4 -1 8 4 8 8
0 20 50 26 102 5 39 54 -110 59 -177 1 -11 4 -22 8 -25 5 -5 35 -116 44 -165
2 -11 13 -53 24 -92 10 -40 17 -73 15 -73 -3 0 0 -9 6 -21 11 -20 20 -56 23
-91 1 -10 4 -18 7 -18 4 0 7 -6 8 -12 2 -31 9 -65 14 -73 3 -6 11 -34 18 -63
11 -47 15 -53 34 -48 19 5 20 4 3 -8 -18 -14 -17 -44 8 -121 7 -22 16 -58 19
-79 4 -22 11 -45 17 -53 6 -7 9 -13 6 -13 -3 0 10 -59 29 -131 19 -72 32 -135
29 -140 -4 -5 -1 -9 5 -9 6 0 9 -4 5 -9 -3 -5 -1 -12 5 -16 5 -3 10 -17 10
-31 0 -14 4 -33 9 -42 5 -9 11 -30 14 -47 3 -16 13 -57 22 -90 9 -33 18 -67
20 -75 2 -8 10 -42 19 -76 8 -33 17 -69 19 -80 2 -10 7 -26 10 -34 3 -8 9 -28
13 -45 4 -16 9 -37 11 -45 2 -8 4 -25 5 -37 0 -13 4 -23 7 -23 4 0 13 -28 21
-62 15 -71 17 -77 19 -80 2 -2 5 -14 7 -28 3 -14 10 -43 16 -65 6 -22 12 -44
13 -50 2 -17 25 -99 35 -122 25 -60 102 -105 171 -101 40 2 60 14 43 27 -11 7
-29 87 -50 216 -15 92 -17 320 -4 365 4 14 7 -22 5 -80 -5 -172 23 -354 74
-482 6 -16 14 -28 19 -28 20 0 74 62 83 95 0 2 7 25 15 51 7 25 11 50 8 55 -3
5 -1 9 3 9 7 0 33 84 47 153 2 7 6 19 9 27 8 20 56 198 63 230 3 14 10 40 16
57 15 43 6 50 -30 24 -17 -12 -34 -21 -39 -21 -4 0 12 13 37 30 40 27 55 46
65 90 2 8 11 40 20 70 9 30 18 64 20 75 4 19 24 92 60 215 21 71 19 66 34 130
12 54 12 56 -24 134 -50 110 -167 288 -180 275 -3 -4 -57 -199 -91 -329 -8
-30 -17 -62 -21 -70 -8 -18 -7 -16 -17 -65 -4 -22 -11 -44 -14 -50 -4 -5 -7
-14 -9 -20 -1 -5 -4 -20 -7 -32 -3 -13 -8 -31 -10 -40 -7 -31 -76 -275 -96
-343 -10 -36 -21 -78 -24 -94 -7 -37 -16 -46 -16 -15 0 13 -14 75 -30 138 -17
63 -32 124 -35 135 -10 48 -37 152 -43 166 -3 8 -6 22 -7 30 -1 9 -7 31 -13
50 -6 19 -13 46 -16 60 -3 14 -9 40 -15 59 -6 19 -8 37 -6 42 3 4 1 9 -4 11
-5 1 -12 19 -14 38 -3 19 -6 36 -7 38 -2 1 -4 7 -5 12 -1 6 -3 11 -5 13 -2 3
-8 25 -15 62 -3 17 -8 37 -11 45 -4 8 -8 24 -10 35 -2 11 -12 53 -23 94 -11
41 -18 78 -15 82 2 4 0 10 -6 14 -6 4 -10 -4 -10 -19 0 -14 -3 -27 -7 -29 -5
-3 -8 27 -9 66 -1 40 -4 86 -8 102 -4 17 -8 38 -9 48 -1 9 -4 17 -7 17 -3 0
-7 8 -8 18 -3 29 -7 47 -13 57 -4 6 -10 28 -14 50 -5 22 -10 47 -12 55 -3 8
-6 22 -7 30 -2 8 -6 22 -9 30 -14 36 -45 174 -41 182 3 4 1 8 -4 8 -5 0 -13
20 -16 44 -15 95 -187 323 -318 420 -35 26 -71 54 -80 61 -10 8 -18 12 -18 9
0 -4 -6 -2 -12 4 -21 16 -125 72 -136 72 -6 0 -14 -15 -18 -32z m156 -563 c0
-2 -22 -16 -50 -30 -27 -14 -50 -23 -50 -20 0 2 21 16 48 29 53 28 52 28 52
21z m-120 -65 c-8 -5 -19 -10 -25 -10 -5 0 -3 5 5 10 8 5 20 10 25 10 6 0 3
-5 -5 -10z m700 -676 c0 -8 -5 -12 -10 -9 -6 4 -8 11 -5 16 9 14 15 11 15 -7z
m560 -980 c0 -8 -206 -104 -225 -104 -32 0 -13 17 33 29 26 7 79 27 117 46 83
39 75 36 75 29z"/>
<path d="M3385 4184 c-65 -34 -77 -52 -111 -173 -13 -47 -38 -135 -55 -194
-17 -60 -29 -111 -26 -114 4 -3 -1 -12 -9 -20 -8 -8 -12 -19 -9 -24 4 -5 1 -9
-5 -9 -6 0 -9 -4 -6 -8 3 -5 -8 -55 -24 -112 -17 -56 -30 -107 -30 -112 0 -5
29 -51 64 -101 58 -84 127 -205 132 -234 1 -6 7 -19 13 -30 10 -17 10 -16 11
5 0 12 4 30 9 40 9 16 47 162 57 220 3 14 7 29 10 34 3 4 7 16 9 25 13 54 28
110 33 123 6 18 4 11 21 80 8 30 17 60 21 65 5 6 8 12 8 15 0 3 8 42 18 86
l18 81 38 -19 c49 -26 51 -30 37 -80 -7 -24 -13 -47 -15 -53 -2 -10 -30 -113
-39 -145 -2 -8 -17 -62 -33 -120 -15 -58 -31 -111 -35 -117 -5 -7 -6 -13 -3
-13 3 0 1 -12 -4 -26 -7 -18 -7 -23 1 -18 6 3 4 -4 -4 -17 -9 -13 -23 -55 -33
-94 -9 -38 -21 -76 -27 -83 -5 -7 -7 -15 -4 -18 3 -3 -1 -24 -9 -46 -8 -23
-16 -50 -19 -62 -2 -12 -12 -50 -21 -85 -13 -49 -15 -68 -6 -82 7 -10 12 -24
12 -29 0 -31 109 -224 168 -299 l19 -24 8 29 c5 16 9 34 10 39 3 9 27 94 30
105 1 3 5 24 10 48 4 23 11 42 15 42 3 0 7 6 7 13 0 13 41 171 50 197 3 8 8
24 10 35 2 11 12 49 23 85 30 102 53 184 55 195 0 6 7 30 14 55 7 25 15 56 18
69 2 13 8 31 12 40 5 9 9 19 10 24 1 4 1 8 2 10 0 1 2 9 4 18 1 9 6 26 10 38
7 22 6 22 -32 6 -21 -9 -63 -30 -93 -47 -30 -17 -51 -27 -47 -22 4 5 47 32 95
59 86 51 87 51 105 110 10 33 20 67 22 75 1 8 8 35 15 60 7 25 13 52 15 60 2
8 8 28 14 43 22 56 5 145 -33 176 -23 20 -127 81 -137 81 -4 0 -13 8 -18 18
-6 9 -11 13 -11 9 0 -5 -15 0 -32 11 -18 11 -49 29 -69 40 -73 40 -84 47 -89
53 -10 11 -73 29 -104 29 -17 0 -44 -7 -61 -16z"/>
<path d="M3324 2692 c-4 -23 -11 -42 -16 -42 -5 0 -7 -4 -4 -8 5 -8 -25 -131
-41 -172 -3 -8 -5 -18 -5 -22 1 -5 -3 -8 -9 -8 -5 0 -8 -4 -5 -9 4 -5 -1 -36
-10 -68 -26 -95 -52 -186 -62 -220 -6 -18 -9 -33 -7 -33 2 0 -3 -16 -11 -35
-8 -19 -12 -35 -10 -35 3 0 -2 -19 -10 -42 -9 -24 -18 -54 -20 -68 -3 -14 -7
-32 -11 -40 -28 -69 -17 -150 26 -191 41 -39 73 -45 201 -43 423 6 530 10 530
16 0 4 -37 30 -82 58 -84 51 -253 123 -321 135 -20 4 -39 11 -42 15 -7 12 98
-14 185 -46 90 -32 172 -72 258 -127 l63 -39 130 -2 c71 0 129 1 129 4 0 4
513 5 1139 5 804 -1 1138 2 1134 9 -4 6 0 6 8 -1 9 -7 32 -11 52 -10 20 2 39
-1 41 -7 3 -7 5 -7 5 -1 1 6 20 9 43 8 104 -3 164 -5 173 -3 6 1 28 1 50 0
112 -6 217 -5 221 2 6 10 -42 55 -79 75 -62 32 -217 86 -297 103 -47 10 -74
19 -60 19 36 1 170 -33 274 -69 111 -39 115 -41 175 -94 l48 -43 114 -3 c185
-6 205 -4 237 19 35 25 62 77 62 121 0 35 -27 100 -42 100 -5 0 -6 5 -3 10 3
6 0 10 -9 10 -8 0 -16 4 -18 9 -6 17 -101 27 -231 25 -71 -1 -131 -4 -133 -7
-8 -7 61 -47 82 -47 11 0 26 -5 34 -10 12 -8 11 -10 -8 -10 -31 0 -92 27 -120
53 -23 21 -27 21 -431 23 l-408 1 -45 -56 c-25 -31 -58 -76 -74 -101 -49 -76
-77 -109 -87 -103 -5 3 -6 8 0 12 5 3 24 29 43 56 18 28 57 80 87 117 29 37
53 69 53 71 0 3 -116 5 -257 6 l-258 1 -30 -57 c-44 -85 -123 -203 -136 -203
-6 0 3 18 20 39 34 43 126 210 119 216 -4 4 -428 6 -1016 5 l-153 0 48 -42
c93 -83 260 -189 319 -204 13 -3 24 -10 24 -15 0 -21 -169 62 -265 130 -57 40
-147 112 -156 124 -3 4 -236 8 -517 8 l-512 1 4 21 c2 12 10 42 17 67 15 55
14 52 21 70 5 12 25 90 42 161 3 9 9 33 15 54 10 36 8 41 -33 94 -49 65 -116
177 -151 253 l-24 52 -7 -42z m3093 -808 c-3 -3 -12 -4 -19 -1 -8 3 -5 6 6 6
11 1 17 -2 13 -5z m40 0 c-3 -3 -12 -4 -19 -1 -8 3 -5 6 6 6 11 1 17 -2 13 -5z
m111 -11 c-10 -2 -28 -2 -40 0 -13 2 -5 4 17 4 22 1 32 -1 23 -4z"/>
</g>
</svg>
